# xmcd CD Database Entry
#
# Track frame offsets:
# 204
# 15324
# 30421
# 44861
# 64640
# 85196
# 105203
# 125041
# 148029
# 162840
# 174720
#
# Disc length: 2642 seconds
#
# Revision: 2
# Processed by: cddbd v1.4PL0 Copyright (c) Steve Scherf et al.
# Submitted via: tcd 2.0b
#
DISCID=8a0a500b
DTITLE=PJDS/Suits you
DYEAR=1900
DGENRE=
TTITLE0=Me
TTITLE1=Shape of things
TTITLE2=(Waiting for this) Car to crash 
TTITLE3=Killer cosiness
TTITLE4=Light sleeper
TTITLE5=No surprise
TTITLE6=Arsonist
TTITLE7=Clock
TTITLE8=Crumbling beauty
TTITLE9=Truth
TTITLE10=Mood like old paint
EXTD=
EXTT0=
EXTT1=
EXTT2=
EXTT3=
EXTT4=
EXTT5=
EXTT6=
EXTT7=
EXTT8=
EXTT9=
EXTT10=
PLAYORDER=
